# xmcd
# 
# Track frame offsets:
#     187
#     31649
#     89829
#     126119
#     170444
# 
# Disc length: 2654
# 
# Revision: 1
# Processed by: cddbd v1.5.2PL0 Copyright (c) Steve Scherf et al.
# Submitted via: BonkEnc v1.0.8
# 
DISCID=380a5c05
DTITLE=John Coltrane - The John Coltrane Quartet Plays
DYEAR=1965
DGENRE=Jazz
TTITLE0=Chim Chim Cheree
TTITLE1=Brasilia
TTITLE2=Nature Boy
TTITLE3=Song Of Praise
TTITLE4=Feelin' Good
EXTD=YEAR: 1991
EXTT0=
EXTT1=
EXTT2=
EXTT3=
EXTT4=
PLAYORDER=
